<svg width="192" height="530" fill="none" xmlns="http://www.w3.org/2000/svg"><g filter="url(#filter0_d_272:1312)"><path d="M-3.173 332.199l169.754-144.813v171.266L-3.173 509.793V332.199z" fill="#29C0DA"/></g><path d="M51.033 385.726c-1.611 0-3.453-.415-5.41-1.348-3.337-1.556-7.02-4.668-7.25-6.95-.23-2.801 17.263-22.2 22.097-24.482 2.532-1.141 4.834-1.244 7.136-1.037 4.028.311 7.365 1.245 10.933 2.386 1.841.519 3.683 1.141 5.64 1.556 5.984 1.348 11.853 1.556 16.802.519.23-.104.691-.104 1.15-.208 1.151-.207 3.684-.622 4.143-1.141 1.381-1.556 5.18-5.913 6.446-7.469.92-1.141 3.797-2.49 6.214-2.49 1.611 0 2.418.623 2.762 1.142.806 1.141-.115 2.385-.46 2.8-.46.519-1.036 1.556-1.841 2.697-3.798 5.602-7.366 10.789-9.322 11.93-2.533 1.66-18.414 4.357-19.795 4.564-1.151.208-4.834-.103-10.358-.622-3.913-.311-8.056-.726-9.207-.623-1.611.104-4.373.415-7.596 4.15-1.496 1.763-3.337 4.979-4.949 7.78-2.186 3.942-3.107 5.498-3.913 5.913-.92.622-1.956.933-3.222.933zm-11.048-8.506c.115 1.349 2.762 4.15 6.33 5.809 1.61.726 4.718 1.868 7.02.726.575-.311 2.071-3.112 3.337-5.29 1.611-2.905 3.453-6.224 5.064-8.091 3.683-4.253 6.905-4.565 8.747-4.772 1.266-.104 5.294.207 9.552.622 4.143.312 8.862.726 9.897.623 3.453-.519 17.149-3.009 19.105-4.357 1.841-1.141 6.445-7.884 8.862-11.515a52.31 52.31 0 011.956-2.8c.575-.83.46-1.038.46-1.142-.229-.311-.69-.518-1.381-.518-1.841 0-4.373 1.141-4.833 1.867-1.266 1.66-5.064 6.12-6.446 7.573-.805.933-2.762 1.244-5.178 1.659-.461.104-.805.104-1.036.208-5.064 1.037-11.393.83-17.493-.623-2.072-.414-3.913-1.037-5.754-1.556-3.453-1.037-6.675-1.971-10.588-2.282-2.302-.207-4.144-.103-6.215.83-4.604 2.075-21.176 20.747-21.406 23.029z" fill="#fff" stroke="#fff" stroke-miterlimit="10"/><path d="M91.889 353.361c-13.35 0-24.168-9.751-24.168-21.784s10.818-21.785 24.168-21.785 24.168 9.752 24.168 21.785-10.933 21.784-24.168 21.784zm0-42.116c-12.43 0-22.557 9.128-22.557 20.332 0 11.203 10.128 20.332 22.557 20.332 12.43 0 22.558-9.129 22.558-20.332-.116-11.204-10.243-20.332-22.558-20.332z" fill="#fff" stroke="#fff" stroke-miterlimit="10"/><path d="M86.827 352.842l-.575-.103c-10.934-2.386-18.645-11.1-18.645-21.162v-1.66l.576-.207a9.632 9.632 0 012.417-.312c2.301 0 4.488.934 5.87 2.49.575-.104 1.15-.207 1.725-.207 4.72 0 8.632 3.527 8.632 7.78 0 .933-.23 1.971-.575 2.904 1.38 1.556 2.186 3.527 2.186 5.602 0 1.556-.46 3.112-1.38 4.46l-.231.415zm-17.493-21.784v.519c0 9.232 6.79 17.22 16.687 19.606.576-1.038.806-2.075.806-3.216 0-1.867-.806-3.631-2.187-4.979l-.345-.415.23-.415c.46-.83.69-1.764.69-2.697 0-3.424-3.107-6.224-6.904-6.224-.576 0-1.266.103-1.842.207l-.575.104-.346-.415c-1.15-1.452-2.992-2.282-4.948-2.282-.346 0-.806.103-1.266.207zm36.482-2.49c-3.223 0-6.216-1.452-8.057-3.838-1.036.415-2.071.623-3.107.623-4.489 0-8.171-3.32-8.171-7.366 0-.622.115-1.348.345-1.97a6.958 6.958 0 01-3.223-4.254l-.115-.622.69-.207c2.533-.83 5.18-1.142 7.827-1.142 10.012 0 18.759 5.395 22.442 13.797l.114.311-.229.312c-1.842 2.697-5.064 4.356-8.516 4.356zm-7.481-5.809l.46.623c1.497 2.282 4.143 3.63 7.021 3.63 2.762 0 5.293-1.244 6.905-3.319-3.569-7.573-11.624-12.448-20.716-12.448-2.187 0-4.489.311-6.56.83.46 1.244 1.496 2.282 2.762 2.904l.69.311-.23.623c-.23.622-.46 1.348-.46 2.074 0 3.216 2.877 5.81 6.445 5.81 1.036 0 2.186-.208 3.107-.727l.576-.311zm2.186 29.15l-.115-1.038c0-.311-.114-.622-.114-.933 0-.623.114-1.349.344-1.971-2.071-1.245-3.337-3.32-3.337-5.602 0-3.942 3.913-7.157 8.401-6.535a8.196 8.196 0 016.099-2.697c1.266 0 2.418.311 3.569.83l.574.207-.114.519c-1.151 7.365-6.676 13.797-14.155 16.805l-1.152.415zm4.143-14.627c-3.107 0-5.754 2.282-5.754 5.187 0 1.867 1.151 3.631 3.107 4.564l.691.311-.23.623c-.231.518-.346 1.141-.461 1.763 6.215-2.904 10.819-8.298 11.97-14.626-.691-.208-1.497-.415-2.188-.415-1.955 0-3.912.933-4.948 2.386l-.345.415-.575-.104c-.461-.104-.806-.104-1.267-.104z" fill="#fff" stroke="#fff" stroke-miterlimit="10"/><g filter="url(#filter1_d_272:1312)"><path d="M-3.173 161.245L166.581 10v177.593L-3.173 338.942V161.245z" fill="#EB3377"/></g><path d="M110.72 200.598H52.866V142.78h2.357v55.463h55.497v2.355z" fill="#fff" stroke="#fff"/><path d="M62.394 190.389l-1.867-1.571 11.394-13.252 13.162 6.284 15.029-21.695 2.063 1.374-16.207 23.363-13.359-6.282-10.215 11.779z" fill="#fff" stroke="#fff"/><path d="M102.175 175.37l-2.063-13.153-13.064 2.061-.393-2.356 15.52-2.454 2.358 15.51-2.358.392z" fill="#fff" stroke="#fff"/><defs><filter id="filter0_d_272:1312" x="-13.173" y="177.386" width="199.753" height="352.407" filterUnits="userSpaceOnUse" color-interpolation-filters="sRGB"><feFlood flood-opacity="0" result="BackgroundImageFix"/><feColorMatrix in="SourceAlpha" values="0 0 0 0 0 0 0 0 0 0 0 0 0 0 0 0 0 0 127 0" result="hardAlpha"/><feOffset dx="5" dy="5"/><feGaussianBlur stdDeviation="7.5"/><feComposite in2="hardAlpha" operator="out"/><feColorMatrix values="0 0 0 0 0 0 0 0 0 0 0 0 0 0 0 0 0 0 0.1 0"/><feBlend in2="BackgroundImageFix" result="effect1_dropShadow_272:1312"/><feBlend in="SourceGraphic" in2="effect1_dropShadow_272:1312" result="shape"/></filter><filter id="filter1_d_272:1312" x="-8.173" y="0" width="199.753" height="358.942" filterUnits="userSpaceOnUse" color-interpolation-filters="sRGB"><feFlood flood-opacity="0" result="BackgroundImageFix"/><feColorMatrix in="SourceAlpha" values="0 0 0 0 0 0 0 0 0 0 0 0 0 0 0 0 0 0 127 0" result="hardAlpha"/><feOffset dx="10" dy="5"/><feGaussianBlur stdDeviation="7.5"/><feComposite in2="hardAlpha" operator="out"/><feColorMatrix values="0 0 0 0 0 0 0 0 0 0 0 0 0 0 0 0 0 0 0.1 0"/><feBlend in2="BackgroundImageFix" result="effect1_dropShadow_272:1312"/><feBlend in="SourceGraphic" in2="effect1_dropShadow_272:1312" result="shape"/></filter></defs></svg>