<svg width="174" height="713" fill="none" xmlns="http://www.w3.org/2000/svg"><g filter="url(#filter0_d_272:1334)"><path d="M25.202 351.252L189.9 188.619v180.859L25.2 529.775V351.252z" fill="#1EBC7F"/><g filter="url(#filter1_d_272:1334)"><path d="M25.202 527.79l165.167-160.618v181.327L25.202 687.485V527.79z" fill="#0D4C6D"/></g><path d="M109.688 389.352h-36.81c-.2 0-.402-.101-.603-.301-.101-.201-.201-.402-.1-.603l18.404-56.232a.757.757 0 01.705-.502c.301 0 .602.201.703.502l18.406 56.232c.1.201-.001.402-.102.603-.201.2-.402.301-.603.301zm-35.904-1.406h34.899l-17.4-53.319-17.5 53.319z" fill="#fff" stroke="#fff" stroke-width=".7"/><path d="M91.283 402.306a.688.688 0 01-.704-.703v-47.395c0-.402.302-.703.704-.703.402 0 .704.301.704.703v47.395a.688.688 0 01-.704.703z" fill="#fff" stroke="#fff" stroke-width=".7"/><path d="M91.284 373.888c-.201 0-.302-.1-.504-.2l-5.33-4.82c-.301-.301-.301-.703 0-1.005.301-.301.704-.301 1.006 0l4.828 4.419 4.827-4.419c.302-.301.704-.2 1.006 0 .302.302.2.704 0 1.005l-5.33 4.82c-.202.1-.403.2-.503.2zm-.001 12.854c-.202 0-.303-.101-.504-.201l-9.05-8.134c-.303-.301-.303-.703 0-1.004.3-.301.703-.301 1.004 0l8.55 7.732 8.548-7.732c.301-.301.704-.201 1.006 0 .301.301.201.703 0 1.004l-9.052 8.134c-.201.1-.402.201-.502.201zm46.163 6.827h-24.942c-.201 0-.402-.1-.604-.301-.101-.201-.201-.402-.101-.603l12.472-38.157a.755.755 0 01.703-.502c.303 0 .604.201.705.502l12.47 38.157c.101.201 0 .402-.1.603-.201.201-.402.301-.603.301zm-23.937-1.405h23.032l-11.466-35.145-11.566 35.145z" fill="#fff" stroke="#fff" stroke-width=".7"/><path d="M124.974 402.306a.687.687 0 01-.704-.703V369.47c0-.401.301-.703.704-.703.402 0 .704.302.704.703v32.133a.688.688 0 01-.704.703z" fill="#fff" stroke="#fff" stroke-width=".7"/><path d="M124.974 383.026c-.202 0-.302-.101-.503-.201l-3.62-3.313c-.302-.302-.302-.703 0-1.005.301-.301.703-.301 1.005 0l3.118 2.812 3.118-2.812c.302-.301.703-.201 1.006 0 .301.302.201.703 0 1.005l-3.621 3.313c-.201.201-.302.201-.503.201zm.001 8.736c-.201 0-.301-.1-.503-.201l-6.135-5.522c-.301-.302-.301-.703 0-1.005.303-.301.704-.301 1.006 0l5.632 5.121 5.632-5.121c.302-.301.704-.201 1.006 0 .302.302.202.703 0 1.005l-6.135 5.522c-.201.101-.302.201-.503.201z" fill="#fff" stroke="#fff" stroke-width=".7"/><path d="M25.202 162.297L189.807 5v184.87L25.202 352.036V162.297z" fill="#29C0DA"/><path d="M110.454 217.91H99.318a.851.851 0 01-.655-.281c-.187-.187-.28-.373-.187-.654l2.901-37.387c0-.467.374-.748.842-.748h5.334c.468 0 .842.374.842.748l2.901 37.387c0 .281-.094.467-.187.654a.851.851 0 01-.655.281zm-10.107-1.683h9.264l-2.713-35.611h-3.743l-2.808 35.611zm2.808-47.855a1.01 1.01 0 01-.655-.28c-5.24-5.702-5.24-5.701-5.24-6.169.28-5.421 1.122-18.226 1.31-19.441.56-3.739 2.058-6.169 4.21-6.917 1.498-.561 3.182-.093 4.586 1.122 2.246 2.056 2.433 11.216 2.433 21.217v3.926c0 .187 0 .187-2.807 5.888-.188.374-.655.561-1.03.467-.842-.28-1.684-.28-2.433.187h-.374zm-4.118-6.636c.281.374 1.217 1.496 4.305 4.767.842-.28 1.684-.374 2.527-.187.842-1.682 1.965-4.019 2.245-4.673v-3.739c0-5.888 0-18.226-1.871-19.909-.936-.841-1.872-1.121-2.807-.841-1.498.561-2.621 2.524-3.089 5.608-.187 1.028-1.029 13.086-1.31 18.974zm-20.495 22.432c-2.62 0-4.492-.747-5.615-2.149-.936-1.309-1.03-2.991-.187-4.674 1.31-2.804 10.013-5.608 19.558-8.599 1.497-.467 2.807-.841 3.743-1.121.187-.094.187-.094 5.615.747.281 0 .468.187.655.468.093.28.093.561 0 .747-.187.468-.374.935-.374 1.402 0 .935.374 1.776 1.122 2.337.375.281.375.748.188 1.122-2.901 5.047-2.995 5.047-3.463 5.14-5.24 1.309-17.78 4.3-18.996 4.393-.749.187-1.591.187-2.246.187zm17.78-14.861c-.936.28-2.153.654-3.556 1.122-5.615 1.682-17.406 5.327-18.529 7.664-.561 1.122-.468 2.15.094 2.898.935 1.308 3.181 1.775 6.27 1.308 1.029-.187 12.82-2.897 18.528-4.299.187-.374.842-1.216 2.34-3.833-.843-.841-1.217-1.962-1.217-3.178 0-.373 0-.747.094-1.028-2.059-.374-3.463-.56-4.024-.654zm35.093 14.861c-.749 0-1.497-.093-2.34-.187-1.216-.186-13.756-3.177-18.996-4.393-.468-.093-.468-.093-3.463-5.14a.994.994 0 01.188-1.122c.748-.561 1.123-1.402 1.123-2.337 0-.467-.094-.934-.375-1.402-.093-.28-.093-.56 0-.747.094-.281.374-.374.655-.468 5.334-.841 5.334-.841 5.521-.747.936.28 2.246.747 3.744 1.215 9.545 2.897 18.247 5.795 19.558 8.599.842 1.682.748 3.365-.188 4.673-.935 1.309-2.901 2.056-5.427 2.056zM110.734 178c5.708 1.402 17.499 4.206 18.528 4.299 2.995.467 5.335 0 6.27-1.308.562-.748.562-1.776.094-2.898-1.123-2.337-12.914-5.982-18.529-7.664-1.403-.468-2.62-.842-3.556-1.122-.374.094-1.31.187-3.93.654.093.374.094.748.094 1.028a4.786 4.786 0 01-1.217 3.178c1.497 2.524 2.059 3.459 2.246 3.833z" fill="#fff" stroke="#fff" stroke-width=".3"/><path d="M104.933 175.756c-2.621 0-4.773-2.149-4.773-4.766 0-2.618 2.152-4.767 4.773-4.767 2.62 0 4.772 2.149 4.772 4.767 0 2.617-2.152 4.766-4.772 4.766zm0-7.851c-1.685 0-3.088 1.402-3.088 3.085 0 1.682 1.403 3.084 3.088 3.084 1.684 0 3.088-1.402 3.088-3.084 0-1.683-1.404-3.085-3.088-3.085z" fill="#fff" stroke="#fff" stroke-width=".3"/><path d="M122.647 567.787H92.44c-.178 0-.44-.089-.534-.266a.79.79 0 010-.619l6.467-11.41c.093-.177.271-.265.533-.265h17.275c.178 0 .44.088.533.265l6.466 11.41a.783.783 0 010 .619c-.084.177-.355.266-.533.266zm-29.14-1.15h28.167l-5.849-10.26H99.262l-5.755 10.26z" fill="#fff" stroke="#fff"/><path d="M116.18 556.377H98.906c-.178 0-.262-.089-.356-.177l-6.466-5.395a.696.696 0 01-.178-.708c.093-.265.355-.354.533-.354h30.208c.271 0 .449.177.533.354a.696.696 0 01-.178.708l-6.466 5.395c-.084.177-.262.177-.356.177zm-17.003-1.238h16.826l5.053-4.246H94.124l5.053 4.246z" fill="#fff" stroke="#fff"/><path d="M137.62 550.981H77.29a.602.602 0 01-.618-.619c0-.354.262-.619.618-.619h60.33c.355 0 .618.265.618.619a.603.603 0 01-.618.619zm-3.192-5.395H80.574a.61.61 0 01-.627-.619.61.61 0 01.627-.619h53.854a.61.61 0 01.627.619.61.61 0 01-.627.619zm-3.191-5.484H83.933a.602.602 0 01-.618-.619c0-.354.263-.619.618-.619h47.304a.61.61 0 01.627.619.61.61 0 01-.627.619zm-3.098-5.395H87.301a.602.602 0 01-.617-.619c0-.354.262-.619.617-.619h40.838c.356 0 .618.265.618.619s-.346.619-.618.619zm-3.189-5.395H90.579a.602.602 0 01-.618-.619c0-.354.262-.619.618-.619h34.371a.61.61 0 01.627.619.61.61 0 01-.627.619z" fill="#fff" stroke="#fff"/><path d="M77.383 550.982c-.093 0-.177 0-.271-.088-.262-.178-.356-.531-.178-.797l6.466-10.879 6.476-10.879a.574.574 0 01.795-.177c.262.177.356.531.178.796l-6.466 10.879-6.466 10.879c-.094.178-.272.266-.534.266zm21.795-22.82c.263.088.44.354.347.708l-3.276 10.879-3.275 10.879c-.093.177-.178.353-.355.353h-.263c-.093 0-.177-.087-.27-.176-.085-.177-.179-.354-.085-.531l3.275-10.879 3.275-10.879c0-.266.272-.442.627-.354zm8.318 0c.271 0 .627.265.627.531v21.757a.491.491 0 01-.271.443c-.085.088-.178.088-.262.088-.094 0-.272 0-.356-.088-.178-.088-.356-.265-.356-.443v-21.757c.094-.266.356-.531.618-.531zm8.601 0c.262-.088.618.088.702.354l3.284 10.879 3.276 10.879c.084.177 0 .354-.094.531-.084.089-.168.089-.262.176h-.262c-.178-.087-.356-.176-.356-.353l-3.275-10.879-3.285-10.879c-.177-.354-.084-.62.272-.708zm21.701 22.82c-.177 0-.439-.088-.533-.266l-6.466-10.879-6.466-10.879c-.178-.265-.085-.619.177-.796.262-.176.618-.088.796.177l6.466 10.879 6.466 10.879a.57.57 0 01-.178.797c-.084.088-.177.088-.262.088zm-30.3-31.576c-4.604 0-8.413-3.804-8.413-8.402 0-4.6 3.809-8.403 8.413-8.403 4.613 0 8.422 3.803 8.422 8.403 0 4.687-3.725 8.402-8.422 8.402zm0-15.479c-3.893 0-7.084 3.185-7.084 7.077 0 3.891 3.191 7.075 7.084 7.075 3.902 0 7.093-3.184 7.093-7.075a7.052 7.052 0 00-7.093-7.077z" fill="#fff" stroke="#fff"/><path d="M107.496 503.839a.608.608 0 01-.618-.619v-5.042c0-.353.272-.619.618-.619a.61.61 0 01.627.619v5.042c.084.354-.178.619-.627.619zm0 20.697a.609.609 0 01-.618-.619v-5.13c0-.354.272-.619.618-.619a.61.61 0 01.627.619v5.13c.084.353-.178.619-.627.619zM99.7 511.711h-5.043a.61.61 0 01-.627-.619.61.61 0 01.627-.619H99.7a.61.61 0 01.627.619c0 .265-.272.619-.627.619zm20.739 0h-5.147a.608.608 0 01-.618-.619c0-.354.272-.619.618-.619h5.147c.346 0 .617.265.617.619 0 .265-.271.619-.617.619zm-18.435-5.573a.71.71 0 01-.44-.176l-3.546-3.538a.7.7 0 010-.973.705.705 0 01.982 0l3.538 3.538a.684.684 0 010 .973c-.178.087-.356.176-.534.176zm14.618 14.683a.694.694 0 01-.44-.177l-3.631-3.626a.7.7 0 010-.973.695.695 0 01.973 0l3.631 3.626a.682.682 0 010 .973c-.178.089-.356.177-.533.177zm-18.155 0a.702.702 0 01-.45-.177.7.7 0 010-.973l3.547-3.538a.696.696 0 01.974 0 .684.684 0 010 .973L99 520.644c-.271.089-.449.177-.533.177zm14.617-14.594a.702.702 0 01-.449-.178.7.7 0 010-.972l3.64-3.626a.693.693 0 01.973 0 .7.7 0 010 .973l-3.631 3.625c-.271.089-.449.178-.533.178z" fill="#fff" stroke="#fff"/></g><defs><filter id="filter0_d_272:1334" x=".202" y="0" width="195.167" height="712.485" filterUnits="userSpaceOnUse" color-interpolation-filters="sRGB"><feFlood flood-opacity="0" result="BackgroundImageFix"/><feColorMatrix in="SourceAlpha" values="0 0 0 0 0 0 0 0 0 0 0 0 0 0 0 0 0 0 127 0" result="hardAlpha"/><feOffset dx="-10" dy="10"/><feGaussianBlur stdDeviation="7.5"/><feComposite in2="hardAlpha" operator="out"/><feColorMatrix values="0 0 0 0 0 0 0 0 0 0 0 0 0 0 0 0 0 0 0.1 0"/><feBlend in2="BackgroundImageFix" result="effect1_dropShadow_272:1334"/><feBlend in="SourceGraphic" in2="effect1_dropShadow_272:1334" result="shape"/></filter><filter id="filter1_d_272:1334" x="5.202" y="357.172" width="195.167" height="350.314" filterUnits="userSpaceOnUse" color-interpolation-filters="sRGB"><feFlood flood-opacity="0" result="BackgroundImageFix"/><feColorMatrix in="SourceAlpha" values="0 0 0 0 0 0 0 0 0 0 0 0 0 0 0 0 0 0 127 0" result="hardAlpha"/><feOffset dx="-5" dy="5"/><feGaussianBlur stdDeviation="7.5"/><feComposite in2="hardAlpha" operator="out"/><feColorMatrix values="0 0 0 0 0 0 0 0 0 0 0 0 0 0 0 0 0 0 0.1 0"/><feBlend in2="BackgroundImageFix" result="effect1_dropShadow_272:1334"/><feBlend in="SourceGraphic" in2="effect1_dropShadow_272:1334" result="shape"/></filter></defs></svg>