<svg width="192" height="530" viewBox="0 0 192 530" fill="none" xmlns="http://www.w3.org/2000/svg">
<g filter="url(#filter0_d_272:1312)">
<path d="M-3.17285 332.199L166.581 187.386V358.652L-3.17285 509.793V332.199Z" fill="#29C0DA"/>
</g>
<path d="M51.0329 385.726C49.4217 385.726 47.5803 385.311 45.6238 384.378C42.2863 382.822 38.6035 379.71 38.3733 377.428C38.1432 374.627 55.6364 355.228 60.4701 352.946C63.002 351.805 65.3038 351.702 67.6055 351.909C71.6336 352.22 74.9711 353.154 78.5388 354.295C80.3802 354.814 82.2215 355.436 84.1781 355.851C90.1626 357.199 96.0321 357.407 100.981 356.37C101.211 356.266 101.672 356.266 102.131 356.162C103.282 355.955 105.815 355.54 106.274 355.021C107.655 353.465 111.454 349.108 112.72 347.552C113.64 346.411 116.517 345.062 118.934 345.062C120.545 345.062 121.352 345.685 121.696 346.204C122.502 347.345 121.581 348.589 121.236 349.004C120.776 349.523 120.2 350.56 119.395 351.701C115.597 357.303 112.029 362.49 110.073 363.631C107.54 365.291 91.6587 367.988 90.2777 368.195C89.1268 368.403 85.444 368.092 79.9198 367.573C76.0069 367.262 71.8637 366.847 70.7128 366.95C69.1017 367.054 66.3395 367.365 63.1171 371.1C61.6209 372.863 59.7795 376.079 58.1684 378.88C55.9817 382.822 55.061 384.378 54.2553 384.793C53.3347 385.415 52.2989 385.726 51.0329 385.726ZM39.9846 377.22C40.0997 378.569 42.7467 381.37 46.3144 383.029C47.9256 383.755 51.0329 384.897 53.3347 383.755C53.9101 383.444 55.4063 380.643 56.6723 378.465C58.2834 375.56 60.1248 372.241 61.736 370.374C65.4188 366.121 68.6413 365.809 70.4827 365.602C71.7487 365.498 75.7767 365.809 80.0349 366.224C84.1781 366.536 88.8966 366.95 89.9324 366.847C93.385 366.328 107.081 363.838 109.037 362.49C110.878 361.349 115.482 354.606 117.899 350.975C118.705 349.731 119.395 348.797 119.855 348.175C120.43 347.345 120.315 347.137 120.315 347.033C120.086 346.722 119.625 346.515 118.934 346.515C117.093 346.515 114.561 347.656 114.101 348.382C112.835 350.042 109.037 354.502 107.655 355.955C106.85 356.888 104.893 357.199 102.477 357.614C102.016 357.718 101.672 357.718 101.441 357.822C96.3773 358.859 90.0476 358.652 83.9479 357.199C81.8763 356.785 80.0349 356.162 78.1935 355.643C74.7409 354.606 71.5185 353.672 67.6055 353.361C65.3038 353.154 63.4623 353.258 61.3908 354.191C56.7873 356.266 40.2147 374.938 39.9846 377.22Z" fill="white" stroke="white" stroke-miterlimit="10"/>
<path d="M91.889 353.361C78.5389 353.361 67.7207 343.61 67.7207 331.577C67.7207 319.544 78.5389 309.792 91.889 309.792C105.239 309.792 116.057 319.544 116.057 331.577C116.057 343.61 105.124 353.361 91.889 353.361ZM91.889 311.245C79.4596 311.245 69.332 320.373 69.332 331.577C69.332 342.78 79.4596 351.909 91.889 351.909C104.319 351.909 114.447 342.78 114.447 331.577C114.331 320.373 104.204 311.245 91.889 311.245Z" fill="white" stroke="white" stroke-miterlimit="10"/>
<path d="M86.827 352.842L86.2516 352.739C75.3183 350.353 67.6074 341.639 67.6074 331.577C67.6074 331.162 67.6074 330.851 67.6074 330.436V329.917L68.1829 329.71C68.9884 329.502 69.794 329.398 70.5997 329.398C72.9014 329.398 75.0881 330.332 76.4691 331.888C77.0446 331.784 77.62 331.681 78.1954 331.681C82.9141 331.681 86.827 335.208 86.827 339.461C86.827 340.394 86.5969 341.432 86.2516 342.365C87.6326 343.921 88.4382 345.892 88.4382 347.967C88.4382 349.523 87.9778 351.079 87.0571 352.427L86.827 352.842ZM69.3337 331.058C69.3337 331.266 69.3337 331.369 69.3337 331.577C69.3337 340.809 76.1239 348.797 86.0214 351.183C86.5969 350.145 86.827 349.108 86.827 347.967C86.827 346.1 86.0214 344.336 84.6403 342.988L84.2951 342.573L84.5252 342.158C84.9856 341.328 85.2157 340.394 85.2157 339.461C85.2157 336.037 82.1084 333.237 78.3105 333.237C77.7351 333.237 77.0446 333.34 76.4691 333.444L75.8937 333.548L75.5484 333.133C74.3975 331.681 72.5562 330.851 70.5997 330.851C70.2544 330.851 69.794 330.954 69.3337 331.058Z" fill="white" stroke="white" stroke-miterlimit="10"/>
<path d="M105.816 328.568C102.593 328.568 99.6005 327.116 97.7592 324.73C96.7234 325.145 95.6876 325.353 94.6517 325.353C90.1634 325.353 86.4806 322.033 86.4806 317.987C86.4806 317.365 86.5957 316.639 86.8259 316.017C85.2146 315.083 84.0637 313.527 83.6034 311.763L83.4883 311.141L84.1788 310.934C86.7107 310.104 89.3578 309.792 92.0048 309.792C102.017 309.792 110.764 315.187 114.447 323.589L114.561 323.9L114.332 324.212C112.49 326.909 109.268 328.568 105.816 328.568ZM98.3346 322.759L98.7949 323.382C100.292 325.664 102.938 327.012 105.816 327.012C108.578 327.012 111.109 325.768 112.721 323.693C109.152 316.12 101.097 311.245 92.0048 311.245C89.8182 311.245 87.5164 311.556 85.4449 312.075C85.9051 313.319 86.9409 314.357 88.2069 314.979L88.8974 315.29L88.6673 315.913C88.437 316.535 88.2069 317.261 88.2069 317.987C88.2069 321.203 91.0841 323.797 94.6517 323.797C95.6876 323.797 96.8385 323.589 97.7592 323.07L98.3346 322.759Z" fill="white" stroke="white" stroke-miterlimit="10"/>
<path d="M100.521 351.909L100.406 350.871C100.406 350.56 100.292 350.249 100.292 349.938C100.292 349.315 100.406 348.589 100.636 347.967C98.5648 346.722 97.2988 344.647 97.2988 342.365C97.2988 338.423 101.212 335.208 105.7 335.83C107.197 334.17 109.383 333.133 111.799 333.133C113.065 333.133 114.217 333.444 115.368 333.963L115.942 334.17L115.828 334.689C114.677 342.054 109.152 348.486 101.673 351.494L100.521 351.909ZM104.664 337.282C101.557 337.282 98.9101 339.564 98.9101 342.469C98.9101 344.336 100.061 346.1 102.017 347.033L102.708 347.344L102.478 347.967C102.247 348.485 102.132 349.108 102.017 349.73C108.232 346.826 112.836 341.432 113.987 335.104C113.296 334.896 112.49 334.689 111.799 334.689C109.844 334.689 107.887 335.622 106.851 337.075L106.506 337.49L105.931 337.386C105.47 337.282 105.125 337.282 104.664 337.282Z" fill="white" stroke="white" stroke-miterlimit="10"/>
<g filter="url(#filter1_d_272:1312)">
<path d="M-3.17285 161.245L166.581 10V187.593L-3.17285 338.942V161.245Z" fill="#EB3377"/>
</g>
<path d="M110.72 200.598H52.8657V142.78H55.223V198.243H110.72V200.598Z" fill="white" stroke="white"/>
<path d="M62.3936 190.389L60.5273 188.818L71.9214 175.566L85.0835 181.85L100.112 160.155L102.175 161.529L85.9675 184.892L72.6091 178.61L62.3936 190.389Z" fill="white" stroke="white"/>
<path d="M102.175 175.37L100.112 162.217L87.0482 164.278L86.6553 161.922L102.175 159.468L104.533 174.978L102.175 175.37Z" fill="white" stroke="white"/>
<defs>
<filter id="filter0_d_272:1312" x="-13.1729" y="177.386" width="199.753" height="352.407" filterUnits="userSpaceOnUse" color-interpolation-filters="sRGB">
<feFlood flood-opacity="0" result="BackgroundImageFix"/>
<feColorMatrix in="SourceAlpha" type="matrix" values="0 0 0 0 0 0 0 0 0 0 0 0 0 0 0 0 0 0 127 0" result="hardAlpha"/>
<feOffset dx="5" dy="5"/>
<feGaussianBlur stdDeviation="7.5"/>
<feComposite in2="hardAlpha" operator="out"/>
<feColorMatrix type="matrix" values="0 0 0 0 0 0 0 0 0 0 0 0 0 0 0 0 0 0 0.1 0"/>
<feBlend mode="normal" in2="BackgroundImageFix" result="effect1_dropShadow_272:1312"/>
<feBlend mode="normal" in="SourceGraphic" in2="effect1_dropShadow_272:1312" result="shape"/>
</filter>
<filter id="filter1_d_272:1312" x="-8.17285" y="0" width="199.753" height="358.942" filterUnits="userSpaceOnUse" color-interpolation-filters="sRGB">
<feFlood flood-opacity="0" result="BackgroundImageFix"/>
<feColorMatrix in="SourceAlpha" type="matrix" values="0 0 0 0 0 0 0 0 0 0 0 0 0 0 0 0 0 0 127 0" result="hardAlpha"/>
<feOffset dx="10" dy="5"/>
<feGaussianBlur stdDeviation="7.5"/>
<feComposite in2="hardAlpha" operator="out"/>
<feColorMatrix type="matrix" values="0 0 0 0 0 0 0 0 0 0 0 0 0 0 0 0 0 0 0.1 0"/>
<feBlend mode="normal" in2="BackgroundImageFix" result="effect1_dropShadow_272:1312"/>
<feBlend mode="normal" in="SourceGraphic" in2="effect1_dropShadow_272:1312" result="shape"/>
</filter>
</defs>
</svg>
