<svg width="44" height="45" fill="none" xmlns="http://www.w3.org/2000/svg"><path d="M29.55 16.434c-.417 0-.834.224-1.058.608l-7.404 12.836-.064.128-.64 4.29c-.033.127.16.223.256.16l3.397-2.722c.032-.031.032-.064.064-.096l6.89-11.907.866.48a.81.81 0 01.289 1.056l-2.789 4.866c-.031.064 0 .192.065.224.064.032.16 0 .224-.064l2.788-4.865c.289-.513.129-1.185-.384-1.473l-.866-.48.385-.672c.32-.576.128-1.313-.449-1.633l-.961-.576c-.225-.096-.417-.16-.61-.16zm-.097.32c.161 0 .353.032.513.096l.962.576a.848.848 0 01.32 1.185l-7.115 12.291c-.192-.384-.609-.704-1.057-.96-.45-.256-.962-.448-1.41-.448h-.033c2.34-4.13 4.744-8.227 7.116-12.323.16-.257.416-.385.704-.417zm-7.788 13.06c.353 0 .834.16 1.25.416.481.288.898.672.994.992v.032l-.128.256c-1.026.833-2.051 1.633-3.077 2.465l.577-3.905.128-.224h.096c.064-.032.128-.032.16-.032z" fill="#fff" stroke="#fff" stroke-width=".687" stroke-miterlimit="10"/><path d="M14.294 13.01c-.064.031-.129.095-.097.16v1.728h-2.692c-.897 0-1.57.352-2.019.864-.449.512-.673 1.184-.673 1.857 0 .672.224 1.344.673 1.856.256.32.64.544 1.058.704-.417.16-.802.384-1.058.704-.449.513-.673 1.185-.673 1.857 0 .672.224 1.344.673 1.857.288.32.64.544 1.058.704-.449.16-.802.384-1.058.704-.449.512-.673 1.184-.673 1.856 0 .672.224 1.345.673 1.857.449.512 1.154.864 2.02.864h7.467c.096 0 .16-.064.16-.16s-.064-.16-.16-.16h-7.468c-.801 0-1.41-.288-1.794-.736a2.594 2.594 0 01-.61-1.665c0-.608.193-1.216.61-1.664.384-.448.993-.736 1.794-.736h10.032c.096 0 .16-.064.16-.16s-.064-.16-.16-.16H11.505c-.801 0-1.41-.288-1.794-.737a2.594 2.594 0 01-.61-1.664c0-.608.193-1.216.61-1.664.384-.449.993-.737 1.794-.737h2.692v2.273c0 .128.16.192.257.128l3.14-2.369 3.142 2.369c.096.064.256 0 .256-.128v-2.273h3.718c.096 0 .16-.064.16-.16s-.064-.16-.16-.16h-3.718v-4.801h11.955c.096 0 .16-.064.16-.16s-.064-.16-.16-.16H20.992v-1.729c0-.096-.064-.16-.16-.16h-6.538zm.224.32h6.122v8.962l-2.981-2.24a.204.204 0 00-.192 0l-2.949 2.24v-8.963zm-3.013 1.888h2.692v4.801h-2.692c-.801 0-1.41-.288-1.794-.736a2.593 2.593 0 01-.61-1.664c0-.609.193-1.217.61-1.665.416-.448.993-.736 1.794-.736z" fill="#fff" stroke="#fff" stroke-width=".687" stroke-miterlimit="10"/></svg>