<svg width="30" height="30" fill="none" xmlns="http://www.w3.org/2000/svg"><path d="M26.771 7.073A7.807 7.807 0 0015.943 6.6a.08.08 0 01-.054.02.087.087 0 01-.054-.02 7.807 7.807 0 00-8.753-1.082c.221.17.378.41.442.683A6.99 6.99 0 0115.3 7.205a.897.897 0 001.18 0 6.996 6.996 0 019.706.425 6.904 6.904 0 011.663 3.052 6.906 6.906 0 01-.044 3.473H24.08a.773.773 0 01-.115-.162l-.694-1.587a.584.584 0 00-.54-.356.6.6 0 00-.328.097.61.61 0 00-.217.26l-1.17 3.175-.854-4.572a.627.627 0 00-.201-.346.615.615 0 00-.374-.146.609.609 0 00-.599.47l-.738 3.052a.416.416 0 01-.15.115h-2.85c.07.265.125.535.163.808h2.707c.205-.018.398-.095.562-.22a1.08 1.08 0 00.35-.49l.514-2.122.816 4.36a.59.59 0 00.53.49.59.59 0 00.612-.384l1.243-3.37.48 1.098c.013.026.302.638.772.638h3.534a7.093 7.093 0 01-1.592 2.408l-9.987 9.894a.094.094 0 01-.065.025.086.086 0 01-.061-.025l-6.372-6.312a8.937 8.937 0 01-1.466-.311l7.266 7.196a.912.912 0 001.27 0l9.986-9.894c3.018-2.988 3.133-7.865.259-10.871z" fill="#fff" stroke="#fff" stroke-width=".138"/><path d="M12.763 19.78a8.67 8.67 0 00.779-.242l.03-.017c.27.202.487.462.633.76.15.297.225.625.225.957a.407.407 0 00.412.399.41.41 0 00.285-.12.393.393 0 00.119-.283 2.9 2.9 0 00-1.13-2.313c.205-.4.365-.82.477-1.253.816-3.392-.446-5.82-3.749-7.215-1.656-.701-4.497-1.664-3.99-3.964a.377.377 0 00-.024-.244.41.41 0 00-.636-.148C4.66 7.37 3.626 8.528 3.221 10.367a8.159 8.159 0 00-.04 3.592 8.23 8.23 0 001.51 3.273c1.33 1.776 3.633 2.804 6.027 2.804.69 0 1.378-.086 2.045-.256zm-7.416-3.023a7.403 7.403 0 01-1.33-6.22c.293-1.316.97-2.255 1.97-3.187.217 2.21 2.769 3.092 4.534 3.84 2.97 1.253 4.01 3.253 3.28 6.293a5.774 5.774 0 01-.371.995c-.759-.42-2.518-1.49-3.565-2.891a.417.417 0 00-.571-.085.408.408 0 00-.16.262.391.391 0 00.074.298c1 1.339 2.541 2.37 3.46 2.91l-.113.032c-2.231.573-5.439.115-7.208-2.247z" fill="#fff" stroke="#fff" stroke-width=".138"/></svg>