<svg width="30" height="30" viewBox="0 0 30 30" fill="none" xmlns="http://www.w3.org/2000/svg">
<path d="M26.771 7.07255C25.3831 5.60774 23.4748 4.73939 21.4542 4.65102C19.4336 4.56266 17.4572 5.26142 15.9435 6.59946C15.9299 6.61237 15.9094 6.61985 15.889 6.61985C15.8686 6.61985 15.8516 6.61237 15.8346 6.59946C14.6576 5.55744 13.1915 4.89606 11.6267 4.70301C10.0653 4.50997 8.48013 4.79377 7.08203 5.51734C7.30314 5.68727 7.45964 5.92891 7.52427 6.2008C8.77269 5.57171 10.181 5.33142 11.5655 5.51053C12.9534 5.68964 14.2528 6.27998 15.3005 7.20543C15.4638 7.34885 15.6713 7.4277 15.889 7.4277C16.1067 7.4277 16.3176 7.34885 16.4809 7.20543C17.8382 6.00639 19.6071 5.38037 21.4202 5.45956C23.2299 5.53874 24.9409 6.31703 26.186 7.63026C26.9922 8.48876 27.5636 9.53961 27.8494 10.6819C28.1317 11.8242 28.1147 13.0202 27.8052 14.155H24.0803C24.0361 14.1067 23.9953 14.0523 23.9646 13.9935L23.2707 12.406C23.2265 12.3003 23.1516 12.2103 23.053 12.147C22.9577 12.0838 22.8455 12.0502 22.7298 12.0502C22.6142 12.0502 22.5019 12.0838 22.4033 12.1474C22.308 12.2106 22.2332 12.3007 22.1856 12.4064C22.1822 12.4166 21.0154 15.5817 21.0154 15.5817L20.1615 11.0099C20.1343 10.8753 20.0629 10.7529 19.9608 10.6635C19.8554 10.5742 19.7227 10.5225 19.5867 10.5177C19.4472 10.5171 19.3145 10.5633 19.2057 10.6489C19.0968 10.7342 19.0186 10.8539 18.988 10.9881L18.2498 14.0401C18.209 14.0897 18.1579 14.1288 18.1001 14.155H15.2495C15.3209 14.4204 15.3754 14.6902 15.4128 14.9632H18.1205C18.3246 14.9451 18.5185 14.8683 18.6818 14.7422C18.8417 14.6165 18.9641 14.4462 19.0322 14.2528L19.5458 12.1307L20.3623 16.4915C20.3861 16.62 20.4473 16.7376 20.5459 16.8263C20.6412 16.9147 20.7636 16.969 20.8929 16.9809C21.0256 16.9932 21.1548 16.9619 21.2671 16.8926C21.3759 16.8232 21.461 16.7196 21.5052 16.5972L22.7468 13.2275L23.2265 14.3249C23.2401 14.3511 23.5292 14.9632 23.9986 14.9632H27.533C27.1724 15.8665 26.6315 16.6863 25.941 17.3711L15.9536 27.2648C15.9366 27.2812 15.9128 27.2903 15.889 27.2903C15.8652 27.2903 15.8448 27.2812 15.8278 27.2648L9.45641 20.9533C8.95976 20.8907 8.46994 20.7864 7.9903 20.6416L15.2563 27.8379C15.4264 28.0024 15.6543 28.0941 15.889 28.0941C16.1271 28.0941 16.355 28.0024 16.5251 27.8379L26.5125 17.9444C29.5298 14.956 29.6455 10.079 26.771 7.07255Z" fill="white" stroke="white" stroke-width="0.138097"/>
<path d="M12.7628 19.7798C13.0145 19.7149 13.2696 19.6361 13.5418 19.5375C13.552 19.5334 13.5622 19.5256 13.5724 19.5208C13.8411 19.7231 14.0588 19.983 14.2051 20.2808C14.3548 20.5785 14.4296 20.9061 14.4296 21.2378C14.4296 21.3438 14.4738 21.4458 14.5521 21.5206C14.6269 21.5953 14.7324 21.6371 14.8412 21.6365C14.9467 21.6358 15.0521 21.5933 15.127 21.5179C15.2052 21.4421 15.246 21.3401 15.246 21.2337C15.2494 20.7892 15.1474 20.3498 14.9535 19.9491C14.7562 19.548 14.4705 19.1966 14.1167 18.921C14.3208 18.5216 14.4806 18.1012 14.5929 17.6676C15.4093 14.2761 14.1473 11.8488 10.8443 10.4527C9.18767 9.75188 6.34724 8.7894 6.85409 6.48854C6.8745 6.40663 6.86432 6.32133 6.8303 6.24452C6.79628 6.16772 6.73846 6.10315 6.66703 6.06032C6.59219 6.01716 6.50716 5.99745 6.42212 6.00424C6.34048 6.0107 6.25882 6.04333 6.19419 6.09737C4.66004 7.37049 3.62594 8.52838 3.22114 10.3663C2.9388 11.5467 2.9286 12.7732 3.18032 13.9594C3.43545 15.1458 3.94908 16.2629 4.69064 17.2322C6.02069 19.0083 8.32361 20.0364 10.7184 20.0364C11.4089 20.0367 12.0961 19.9504 12.7628 19.7798ZM5.34718 16.7571C4.67705 15.8789 4.21102 14.8664 3.9797 13.7918C3.75179 12.7172 3.76199 11.6062 4.01712 10.5366C4.30966 9.22068 4.9866 8.28233 5.98669 7.35043C6.2044 9.55952 8.75563 10.4421 10.5211 11.1895C13.4907 12.4432 14.5317 14.443 13.8003 17.4834C13.7085 17.8253 13.5826 18.158 13.4295 18.4778C12.671 18.0581 10.9123 16.9889 9.8646 15.5866C9.79997 15.501 9.70471 15.4442 9.59585 15.4282C9.4904 15.4123 9.38154 15.4388 9.2931 15.5016C9.20806 15.5645 9.15024 15.659 9.13323 15.7637C9.11622 15.8687 9.14343 15.9757 9.20806 16.0617C10.2081 17.4008 11.7491 18.4319 12.6676 18.972C12.6301 18.9822 12.5927 18.9944 12.5553 19.0039C10.3238 19.5773 7.11604 19.1188 5.34718 16.7571Z" fill="white" stroke="white" stroke-width="0.138097"/>
</svg>
