<svg width="44" height="45" viewBox="0 0 44 45" fill="none" xmlns="http://www.w3.org/2000/svg">
<path d="M29.5497 16.4341C29.1332 16.4341 28.7165 16.6583 28.492 17.0423L21.0884 29.8781C21.0565 29.942 21.0565 29.942 21.0244 30.006L20.3835 34.2954C20.3513 34.4233 20.5436 34.5193 20.6398 34.4554L24.0372 31.7344C24.069 31.7026 24.069 31.6705 24.1012 31.6384L30.9919 19.7311L31.8573 20.2114C32.2101 20.4353 32.338 20.8835 32.1457 21.2674L29.3574 26.1329C29.3255 26.1968 29.3573 26.325 29.4217 26.3572C29.4857 26.389 29.5818 26.3568 29.6458 26.2929L32.4342 21.4278C32.7226 20.9153 32.5625 20.2432 32.0496 19.9553L31.1842 19.475C31.3126 19.2511 31.4409 19.0268 31.5688 18.8029C31.8895 18.2268 31.6971 17.4905 31.1202 17.1705L30.1587 16.5944C29.9343 16.4984 29.742 16.4341 29.5497 16.4341ZM29.4535 16.7544C29.614 16.7544 29.8063 16.7862 29.9664 16.8501L30.9279 17.4265C31.3447 17.6505 31.5049 18.1947 31.2486 18.6108L24.1334 30.9023C23.9411 30.5181 23.5243 30.1981 23.0757 29.942C22.6268 29.686 22.1142 29.4938 21.6653 29.4938H21.6334C23.9729 25.3647 26.3767 21.2674 28.7486 17.1705C28.9088 16.9144 29.1651 16.7862 29.4535 16.7544ZM21.6653 29.8138C22.018 29.8138 22.4988 29.9742 22.9152 30.2302C23.396 30.5181 23.8128 30.9023 23.9089 31.2223V31.2545L23.7806 31.5105C22.7551 32.3426 21.7296 33.1429 20.7037 33.9751L21.2807 30.0702L21.409 29.846C21.4411 29.846 21.473 29.846 21.5051 29.846C21.5691 29.8138 21.6334 29.8138 21.6653 29.8138Z" fill="white" stroke="white" stroke-width="0.687224" stroke-miterlimit="10"/>
<path d="M14.2936 13.0092C14.2296 13.0413 14.1653 13.1052 14.1975 13.1691V14.8976H11.5052C10.6077 14.8976 9.93463 15.2498 9.48604 15.7619C9.03745 16.274 8.81299 16.9461 8.81299 17.6186C8.81299 18.2907 9.03745 18.9628 9.48604 19.4749C9.74233 19.7953 10.1269 20.0192 10.5437 20.1792C10.1269 20.3392 9.74233 20.5634 9.48604 20.8834C9.03745 21.3956 8.81299 22.0677 8.81299 22.7398C8.81299 23.4122 9.03745 24.0844 9.48604 24.5965C9.77449 24.9165 10.1269 25.1407 10.5437 25.3007C10.0951 25.4607 9.74233 25.6847 9.48604 26.005C9.03745 26.5171 8.81299 27.1892 8.81299 27.8613C8.81299 28.5334 9.03745 29.2059 9.48604 29.718C9.93463 30.2301 10.6399 30.5823 11.5052 30.5823H18.9729C19.069 30.5823 19.1333 30.518 19.1333 30.4223C19.1333 30.3262 19.069 30.2619 18.9729 30.2619H11.5052C10.7039 30.2619 10.0951 29.9741 9.71051 29.5259C9.32591 29.0777 9.10144 28.4695 9.10144 27.8613C9.10144 27.2531 9.29375 26.645 9.71051 26.1968C10.0951 25.7489 10.7039 25.4607 11.5052 25.4607C14.8384 25.4607 18.2037 25.4607 21.5371 25.4607C21.6333 25.4607 21.6973 25.3968 21.6973 25.3007C21.6973 25.2047 21.6333 25.1407 21.5371 25.1407C18.2037 25.1407 14.8384 25.1407 11.5052 25.1407C10.7039 25.1407 10.0951 24.8525 9.71051 24.4043C9.32591 23.9562 9.10144 23.348 9.10144 22.7398C9.10144 22.1316 9.29375 21.5237 9.71051 21.0756C10.0951 20.6274 10.7039 20.3392 11.5052 20.3392C12.4028 20.3392 13.2999 20.3392 14.1975 20.3392V22.6119C14.1975 22.7398 14.3576 22.8041 14.4538 22.7398L17.5949 20.3713L20.7358 22.7398C20.8319 22.8041 20.9921 22.7398 20.9921 22.6119V20.3392H24.7101C24.8063 20.3392 24.8703 20.2752 24.8703 20.1792C24.8703 20.0831 24.8063 20.0192 24.7101 20.0192H20.9921V15.2176H32.947C33.0431 15.2176 33.1071 15.1537 33.1071 15.0576C33.1071 14.9616 33.0431 14.8976 32.947 14.8976H20.9921V13.1691C20.9921 13.0731 20.9281 13.0092 20.8319 13.0092C18.6204 13.0092 16.4729 13.0092 14.2936 13.0092ZM14.5181 13.3292H20.6396V22.2919L17.6589 20.0513C17.5949 20.0192 17.5306 20.0192 17.4666 20.0513L14.5181 22.2919V20.1792C14.5181 17.9064 14.5181 15.6019 14.5181 13.3292ZM11.5052 15.2176H14.1975C14.1975 16.8183 14.1975 18.4186 14.1975 20.0192C13.2999 20.0192 12.4028 20.0192 11.5052 20.0192C10.7039 20.0192 10.0951 19.731 9.71051 19.2828C9.32591 18.8349 9.10144 18.2268 9.10144 17.6186C9.10144 17.0104 9.29375 16.4022 9.71051 15.954C10.1269 15.5058 10.7039 15.2176 11.5052 15.2176Z" fill="white" stroke="white" stroke-width="0.687224" stroke-miterlimit="10"/>
</svg>
